<svg width="14" height="14" viewBox="0 0 14 14" fill="none" xmlns="http://www.w3.org/2000/svg">
<path d="M1.12183 5.0063C0.38628 3.53016 1.12844 1.90106 2.54266 1.05253C3.22354 0.643996 4.10353 0.821292 4.5731 1.46161L5.61487 2.88221C6.05828 3.48686 6.12624 4.28872 5.79091 4.95937L5.51776 5.50567C5.43869 5.66382 5.42619 5.84675 5.50707 6.00398C5.65444 6.29042 5.96825 6.79805 6.57278 7.40258C7.17731 8.00711 7.68493 8.32092 7.97138 8.46828C8.1286 8.54917 8.31154 8.53667 8.46969 8.45759L9.01599 8.18444C9.68663 7.84912 10.4885 7.91708 11.0931 8.36049L12.5137 9.40226C13.1541 9.87183 13.3314 10.7518 12.9228 11.4327C12.0743 12.8469 10.4452 13.5891 8.96906 12.8535C7.72498 12.2336 6.1352 11.2076 4.45146 9.5239C2.76772 7.84016 1.74175 6.25038 1.12183 5.0063Z" fill="#83BF6E"/>
</svg>
